<svg width="40" height="35" viewBox="0 0 40 35" fill="none" xmlns="http://www.w3.org/2000/svg">
<g clip-path="url(#clip0_14_159)">
<path d="M18.5806 25.8562C18.6277 27.0983 18.4319 28.3369 18.0073 29.4838C17.5827 30.6306 16.9396 31.6576 16.1239 32.4917L16.1174 32.4975C14.4284 34.19 12.2288 35.0848 9.9729 34.9971H9.9871C8.62351 35.0804 7.26041 34.8234 5.99463 34.2442C4.72885 33.665 3.59145 32.7779 2.66322 31.6458L2.65806 31.64C0.797148 29.1442 -0.15202 25.9405 0.00387048 22.6815L0.00258016 22.7121C-0.0839007 19.3276 0.472695 15.9614 1.63484 12.8406L1.58323 12.9967C2.51111 10.5498 3.79852 8.29798 5.39097 6.33646L5.37677 6.35396C6.69237 4.7409 8.2168 3.36266 9.89806 2.26625L9.99097 2.21083C11.2626 1.38174 12.5896 0.666434 13.96 0.0714563L14.1613 -0.00583537L18.2052 7.70875C16.5247 8.47503 15.0497 9.72245 13.9252 11.3283L13.9084 11.3531C12.7886 12.8606 12.0863 14.7073 11.889 16.6629L11.8852 16.7096C12.7651 16.7345 13.6305 16.9693 14.4245 17.3985C15.2186 17.8278 15.9235 18.4418 16.4929 19.2004L16.5006 19.2106C17.9485 21.0327 18.6975 23.4296 18.5832 25.8752L18.5845 25.8533L18.5806 25.8562ZM40.449 25.8562C40.4956 27.0986 40.2995 28.3373 39.8746 29.4844C39.4498 30.6314 38.8067 31.6587 37.991 32.4931L37.9845 32.499C36.2959 34.1922 34.096 35.087 31.84 34.9985H31.8542C30.4906 35.0823 29.1274 34.8254 27.8615 34.2462C26.5957 33.667 25.4583 32.7796 24.5303 31.6473L24.5252 31.64C22.6635 29.1441 21.7142 25.9396 21.871 22.68L21.8697 22.7106C21.7832 19.3261 22.3398 15.96 23.5019 12.8392L23.4503 12.9952C24.3778 10.5488 25.6643 8.29702 27.2555 6.335L27.2413 6.3525C28.5573 4.73941 30.0822 3.36117 31.7639 2.26479L31.8568 2.20937C33.1281 1.3797 34.4552 0.664369 35.8258 0.069998L36.0271 -0.0072937L40.0697 7.70729C38.389 8.47451 36.914 9.72294 35.7897 11.3298L35.7729 11.3546C34.6532 12.8621 33.9508 14.7088 33.7535 16.6644L33.7497 16.711C34.6293 16.7358 35.4943 16.9705 36.288 17.3998C37.0816 17.8291 37.786 18.4432 38.3548 19.2019L38.3626 19.2121C39.812 21.0327 40.5625 23.4294 40.449 25.8752L40.4503 25.8533L40.449 25.8562Z" fill="#D95C14"/>
</g>
<defs>
<clipPath id="clip0_14_159">
<rect width="40" height="35" fill="white"/>
</clipPath>
</defs>
</svg>
