<svg width="40" height="35" viewBox="0 0 40 35" fill="none" xmlns="http://www.w3.org/2000/svg">
<g clip-path="url(#clip0_14_157)">
<path d="M21.8684 9.14376C21.8211 7.90142 22.0168 6.66259 22.4414 5.51545C22.8661 4.36832 23.5092 3.34109 24.3252 2.50688L24.3316 2.50105C26.0206 0.808507 28.2202 -0.0862895 30.4761 0.00146731H30.4619C31.8255 -0.0818679 33.1886 0.175191 34.4544 0.754385C35.7202 1.33358 36.8576 2.2207 37.7858 3.35272L37.791 3.35855C39.6519 5.85435 40.601 9.05802 40.4451 12.3171L40.4464 12.2865C40.5329 15.671 39.9763 19.0371 38.8142 22.1579L38.8658 22.0019C37.9379 24.4484 36.651 26.7001 35.0593 28.6621L35.0735 28.6446C33.7579 30.2576 32.2335 31.6359 30.5522 32.7323L30.4593 32.7877C29.1878 33.6168 27.8607 34.3321 26.4903 34.9271L26.289 35.0044L22.2452 27.2898C23.9256 26.5235 25.4006 25.2761 26.5252 23.6702L26.5419 23.6454C27.6617 22.1379 28.364 20.2912 28.5613 18.3356L28.5652 18.289C27.6852 18.2641 26.8198 18.0293 26.0258 17.6C25.2317 17.1708 24.5269 16.5567 23.9574 15.7981L23.9497 15.7879C22.5018 13.9659 21.7528 11.5689 21.8671 9.12334L21.8658 9.14522L21.8684 9.14376ZM-6.37211e-06 9.14376C-0.0465456 7.90138 0.149565 6.66267 0.574392 5.51562C0.999219 4.36857 1.64234 3.34133 2.45806 2.50688L2.46451 2.50105C4.15314 0.807853 6.35298 -0.0870411 8.60902 0.00146731H8.59483C9.95846 -0.0822731 11.3217 0.1746 12.5875 0.753819C13.8533 1.33304 14.9907 2.22037 15.9187 3.35272L15.9239 3.36001C17.7856 5.85589 18.7348 9.06037 18.5781 12.32L18.5793 12.2894C18.6658 15.6739 18.1092 19.04 16.9471 22.1608L16.9987 22.0048C16.0712 24.4512 14.7848 26.703 13.1935 28.665L13.2077 28.6475C11.8917 30.2606 10.3668 31.6388 8.68515 32.7352L8.59225 32.7906C7.32093 33.6203 5.99383 34.3356 4.62322 34.93L4.42193 35.0073L0.379348 27.2927C2.06001 26.5255 3.53503 25.2771 4.65935 23.6702L4.67612 23.6454C5.79587 22.1379 6.49818 20.2912 6.69548 18.3356L6.69935 18.289C5.81975 18.2642 4.95473 18.0295 4.16106 17.6002C3.3674 17.1709 2.66303 16.5568 2.09419 15.7981L2.08645 15.7879C0.636998 13.9673 -0.113474 11.5706 -6.37211e-06 9.1248L-0.0012967 9.14668L-6.37211e-06 9.14376Z" fill="#D95C14"/>
</g>
<defs>
<clipPath id="clip0_14_157">
<rect width="40" height="35" fill="white"/>
</clipPath>
</defs>
</svg>
