<svg width="43" height="40" viewBox="0 0 43 40" fill="none" xmlns="http://www.w3.org/2000/svg">
<path d="M21.7614 0C27.4111 0 28.116 0.0199999 30.3327 0.12C32.5473 0.22 34.0548 0.554 35.3815 1.05C36.7539 1.558 37.9101 2.246 39.0662 3.356C40.1236 4.35579 40.9417 5.56518 41.4638 6.9C41.9774 8.174 42.3267 9.626 42.4307 11.756C42.5284 13.888 42.5555 14.566 42.5555 20C42.5555 25.434 42.5347 26.112 42.4307 28.244C42.3267 30.374 41.9774 31.824 41.4638 33.1C40.9433 34.4356 40.1249 35.6452 39.0662 36.644C38.0264 37.6606 36.7691 38.4475 35.3815 38.95C34.0569 39.444 32.5473 39.78 30.3327 39.88C28.116 39.974 27.4111 40 21.7614 40C16.1116 40 15.4067 39.98 13.19 39.88C10.9755 39.78 9.4679 39.444 8.14123 38.95C6.75287 38.4489 5.49524 37.6619 4.45652 36.644C3.39895 35.6444 2.58075 34.4349 2.05896 33.1C1.54327 31.826 1.196 30.374 1.09203 28.244C0.994302 26.112 0.96727 25.434 0.96727 20C0.96727 14.566 0.988064 13.888 1.09203 11.756C1.196 9.624 1.54327 8.176 2.05896 6.9C2.5793 5.56436 3.39769 4.35464 4.45652 3.356C5.49554 2.33846 6.75308 1.55146 8.14123 1.05C9.4679 0.554 10.9734 0.22 13.19 0.12C15.4067 0.0259999 16.1116 0 21.7614 0ZM21.7614 10C19.0039 10 16.3594 11.0536 14.4095 12.9289C12.4597 14.8043 11.3643 17.3478 11.3643 20C11.3643 22.6522 12.4597 25.1957 14.4095 27.0711C16.3594 28.9464 19.0039 30 21.7614 30C24.5188 30 27.1634 28.9464 29.1132 27.0711C31.063 25.1957 32.1584 22.6522 32.1584 20C32.1584 17.3478 31.063 14.8043 29.1132 12.9289C27.1634 11.0536 24.5188 10 21.7614 10ZM35.2775 9.5C35.2775 8.83696 35.0037 8.20107 34.5162 7.73223C34.0288 7.26339 33.3676 7 32.6783 7C31.9889 7 31.3278 7.26339 30.8403 7.73223C30.3529 8.20107 30.079 8.83696 30.079 9.5C30.079 10.163 30.3529 10.7989 30.8403 11.2678C31.3278 11.7366 31.9889 12 32.6783 12C33.3676 12 34.0288 11.7366 34.5162 11.2678C35.0037 10.7989 35.2775 10.163 35.2775 9.5ZM21.7614 14C23.4158 14 25.0026 14.6321 26.1725 15.7574C27.3424 16.8826 27.9996 18.4087 27.9996 20C27.9996 21.5913 27.3424 23.1174 26.1725 24.2426C25.0026 25.3679 23.4158 26 21.7614 26C20.1069 26 18.5202 25.3679 17.3503 24.2426C16.1804 23.1174 15.5231 21.5913 15.5231 20C15.5231 18.4087 16.1804 16.8826 17.3503 15.7574C18.5202 14.6321 20.1069 14 21.7614 14Z" fill="#F2B33D"/>
</svg>
