<svg width="42" height="40" viewBox="0 0 42 40" fill="none" xmlns="http://www.w3.org/2000/svg">
<path d="M20.9452 0C9.46199 0 0.151062 8.95536 0.151062 20C0.151062 31.0446 9.46199 40 20.9452 40C32.4283 40 41.7393 31.0446 41.7393 20C41.7393 8.95536 32.4283 0 20.9452 0ZM30.9384 15.0759C30.9523 15.2857 30.9523 15.5045 30.9523 15.7188C30.9523 22.2723 25.7631 29.8214 16.2804 29.8214C13.3562 29.8214 10.6456 29.0045 8.36195 27.5982C8.77969 27.6429 9.17886 27.6607 9.60588 27.6607C12.0195 27.6607 14.2381 26.875 16.0066 25.5446C13.7415 25.5 11.8385 24.0714 11.1886 22.1071C11.9823 22.2188 12.6971 22.2188 13.5141 22.0179C12.3478 21.79 11.2995 21.1807 10.5473 20.2937C9.79506 19.4066 9.38534 18.2965 9.38773 17.1518V17.0893C10.07 17.4598 10.873 17.6875 11.7131 17.7188C11.0069 17.266 10.4277 16.6527 10.0269 15.9332C9.62614 15.2136 9.41615 14.4101 9.41558 13.5938C9.41558 12.6696 9.66622 11.8259 10.1164 11.0938C11.411 12.6265 13.0264 13.8801 14.8576 14.7731C16.6889 15.666 18.695 16.1784 20.7456 16.2768C20.0169 12.9062 22.6347 10.1786 25.7816 10.1786C27.2669 10.1786 28.6037 10.7768 29.5459 11.7411C30.711 11.5312 31.8249 11.1116 32.8182 10.5491C32.433 11.6964 31.6253 12.6652 30.5531 13.2768C31.5929 13.1696 32.5954 12.8929 33.5237 12.5045C32.8229 13.4955 31.9456 14.375 30.9384 15.0759Z" fill="#F2B33D"/>
</svg>
