<svg width="21" height="16" viewBox="0 0 21 16" fill="none" xmlns="http://www.w3.org/2000/svg">
<path d="M18.7761 0H2.14084C0.997166 0 0.0718289 0.9 0.0718289 2L0.0614319 14C0.0614319 15.1 0.997166 16 2.14084 16H18.7761C19.9198 16 20.8555 15.1 20.8555 14V2C20.8555 0.9 19.9198 0 18.7761 0ZM18.3602 4.25L11.0095 8.67C10.6768 8.87 10.2401 8.87 9.90744 8.67L2.55672 4.25C2.45247 4.19371 2.36118 4.11766 2.28836 4.02645C2.21555 3.93525 2.16274 3.83078 2.13312 3.71937C2.1035 3.60796 2.0977 3.49194 2.11605 3.37831C2.13441 3.26468 2.17654 3.15581 2.23991 3.0583C2.30327 2.96079 2.38655 2.87666 2.4847 2.811C2.58285 2.74533 2.69383 2.69951 2.81093 2.6763C2.92802 2.65309 3.0488 2.65297 3.16594 2.67595C3.28309 2.69893 3.39417 2.74453 3.49246 2.81L10.4585 7L17.4245 2.81C17.5228 2.74453 17.6339 2.69893 17.751 2.67595C17.8682 2.65297 17.9889 2.65309 18.106 2.6763C18.2231 2.69951 18.3341 2.74533 18.4323 2.811C18.5304 2.87666 18.6137 2.96079 18.6771 3.0583C18.7404 3.15581 18.7826 3.26468 18.8009 3.37831C18.8193 3.49194 18.8135 3.60796 18.7838 3.71937C18.7542 3.83078 18.7014 3.93525 18.6286 4.02645C18.5558 4.11766 18.4645 4.19371 18.3602 4.25Z" fill="black"/>
</svg>
